<svg width="86" height="11" viewBox="0 0 86 11" fill="none" xmlns="http://www.w3.org/2000/svg">
<path d="M1.352 8.964H4.768V10H0.0780001V0.242H1.352V8.964ZM12.545 10.098C11.6396 10.098 10.8136 9.888 10.067 9.468C9.3203 9.03867 8.72764 8.446 8.28897 7.69C7.85964 6.92467 7.64497 6.066 7.64497 5.114C7.64497 4.162 7.85964 3.308 8.28897 2.552C8.72764 1.78667 9.3203 1.194 10.067 0.773999C10.8136 0.344666 11.6396 0.129999 12.545 0.129999C13.4596 0.129999 14.2903 0.344666 15.037 0.773999C15.7836 1.194 16.3716 1.782 16.801 2.538C17.2303 3.294 17.445 4.15267 17.445 5.114C17.445 6.07533 17.2303 6.934 16.801 7.69C16.3716 8.446 15.7836 9.03867 15.037 9.468C14.2903 9.888 13.4596 10.098 12.545 10.098ZM12.545 8.992C13.2263 8.992 13.8376 8.83333 14.379 8.516C14.9296 8.19867 15.359 7.746 15.667 7.158C15.9843 6.57 16.143 5.88867 16.143 5.114C16.143 4.33 15.9843 3.64867 15.667 3.07C15.359 2.482 14.9343 2.02933 14.393 1.712C13.8516 1.39467 13.2356 1.236 12.545 1.236C11.8543 1.236 11.2383 1.39467 10.697 1.712C10.1556 2.02933 9.7263 2.482 9.40897 3.07C9.10097 3.64867 8.94697 4.33 8.94697 5.114C8.94697 5.88867 9.10097 6.57 9.40897 7.158C9.7263 7.746 10.1556 8.19867 10.697 8.516C11.2476 8.83333 11.8636 8.992 12.545 8.992ZM26.8948 7.83H22.6388L21.8548 10H20.5108L24.0388 0.298H25.5088L29.0228 10H27.6788L26.8948 7.83ZM26.5308 6.794L24.7668 1.866L23.0028 6.794H26.5308ZM35.5984 0.242C36.6624 0.242 37.5818 0.442666 38.3564 0.843999C39.1404 1.236 39.7378 1.80067 40.1484 2.538C40.5684 3.27533 40.7784 4.14333 40.7784 5.142C40.7784 6.14067 40.5684 7.00867 40.1484 7.746C39.7378 8.474 39.1404 9.034 38.3564 9.426C37.5818 9.80867 36.6624 10 35.5984 10H32.5604V0.242H35.5984ZM35.5984 8.95C36.8584 8.95 37.8198 8.61867 38.4824 7.956C39.1451 7.284 39.4764 6.346 39.4764 5.142C39.4764 3.92867 39.1404 2.98133 38.4684 2.3C37.8058 1.61867 36.8491 1.278 35.5984 1.278H33.8344V8.95H35.5984ZM45.7329 0.242V10H44.4589V0.242H45.7329ZM57.5762 10H56.3022L51.1782 2.23V10H49.9042V0.228H51.1782L56.3022 7.984V0.228H57.5762V10ZM69.1399 3.07C68.8693 2.50067 68.4773 2.062 67.9639 1.754C67.4506 1.43667 66.8533 1.278 66.1719 1.278C65.4906 1.278 64.8746 1.43667 64.3239 1.754C63.7826 2.062 63.3533 2.51 63.0359 3.098C62.7279 3.67667 62.5739 4.34867 62.5739 5.114C62.5739 5.87933 62.7279 6.55133 63.0359 7.13C63.3533 7.70867 63.7826 8.15667 64.3239 8.474C64.8746 8.782 65.4906 8.936 66.1719 8.936C67.1239 8.936 67.9079 8.65133 68.5239 8.082C69.1399 7.51267 69.4993 6.74267 69.6019 5.772H65.7099V4.736H70.9599V5.716C70.8853 6.51867 70.6333 7.256 70.2039 7.928C69.7746 8.59067 69.2099 9.118 68.5099 9.51C67.8099 9.89267 67.0306 10.084 66.1719 10.084C65.2666 10.084 64.4406 9.874 63.6939 9.454C62.9473 9.02467 62.3546 8.432 61.9159 7.676C61.4866 6.92 61.2719 6.066 61.2719 5.114C61.2719 4.162 61.4866 3.308 61.9159 2.552C62.3546 1.78667 62.9473 1.194 63.6939 0.773999C64.4406 0.344666 65.2666 0.129999 66.1719 0.129999C67.2079 0.129999 68.1226 0.386666 68.9159 0.899999C69.7186 1.41333 70.3019 2.13667 70.6659 3.07H69.1399ZM75.0504 10.084C74.8077 10.084 74.6024 10 74.4344 9.832C74.2664 9.664 74.1824 9.45867 74.1824 9.216C74.1824 8.97333 74.2664 8.768 74.4344 8.6C74.6024 8.432 74.8077 8.348 75.0504 8.348C75.2837 8.348 75.4797 8.432 75.6384 8.6C75.8064 8.768 75.8904 8.97333 75.8904 9.216C75.8904 9.45867 75.8064 9.664 75.6384 9.832C75.4797 10 75.2837 10.084 75.0504 10.084ZM79.9899 10.084C79.7472 10.084 79.5419 10 79.3739 9.832C79.2059 9.664 79.1219 9.45867 79.1219 9.216C79.1219 8.97333 79.2059 8.768 79.3739 8.6C79.5419 8.432 79.7472 8.348 79.9899 8.348C80.2232 8.348 80.4192 8.432 80.5779 8.6C80.7459 8.768 80.8299 8.97333 80.8299 9.216C80.8299 9.45867 80.7459 9.664 80.5779 9.832C80.4192 10 80.2232 10.084 79.9899 10.084ZM84.9293 10.084C84.6866 10.084 84.4813 10 84.3133 9.832C84.1453 9.664 84.0613 9.45867 84.0613 9.216C84.0613 8.97333 84.1453 8.768 84.3133 8.6C84.4813 8.432 84.6866 8.348 84.9293 8.348C85.1626 8.348 85.3586 8.432 85.5173 8.6C85.6853 8.768 85.7693 8.97333 85.7693 9.216C85.7693 9.45867 85.6853 9.664 85.5173 9.832C85.3586 10 85.1626 10.084 84.9293 10.084Z" fill="#7E7E7E"/>
</svg>
